<svg width="426" height="429" viewBox="0 0 426 429" fill="none" xmlns="http://www.w3.org/2000/svg">
<g clip-path="url(#clip0_21_219)">
<path d="M40.9667 361.395L37.2148 346.538C30.5626 343.708 23.7568 341.256 16.8296 339.195L16.356 346.1L14.4355 338.493C5.84453 336.027 0 334.942 0 334.942C0 334.942 7.89261 365.083 24.4522 388.126L43.7457 391.529L28.7571 393.699C30.8402 396.216 33.0787 398.598 35.4596 400.833C59.5464 423.281 86.375 433.58 95.3823 423.836C104.39 414.093 92.1652 387.997 68.0784 365.551C60.6113 358.592 51.2311 353.008 41.8412 348.611L40.9667 361.395Z" fill="#F2F2F2"/>
<path d="M76.6468 345.258L81.0838 330.593C76.8469 324.717 72.2833 319.086 67.4147 313.727L63.4547 319.392L65.7264 311.883C59.6405 305.316 55.1961 301.354 55.1961 301.354C55.1961 301.354 46.437 331.253 48.7476 359.573L63.5119 372.499L49.5614 366.577C50.0495 369.813 50.7399 373.015 51.6284 376.164C60.6911 407.881 78.3552 430.622 91.0817 426.956C103.808 423.29 106.779 394.606 97.7161 362.889C94.9068 353.056 89.7514 343.407 83.9767 334.771L76.6468 345.258Z" fill="#F2F2F2"/>
<path d="M297.261 101.63H294.92V37.2583C294.92 32.3655 293.96 27.5205 292.096 23.0002C290.231 18.4798 287.497 14.3724 284.051 10.9127C280.606 7.45295 276.515 4.70852 272.013 2.83611C267.51 0.963711 262.685 0 257.812 0H121.975C112.133 0 102.694 3.92542 95.735 10.9127C88.7758 17.9 84.8662 27.3768 84.8662 37.2583V390.415C84.8662 395.307 85.826 400.152 87.6909 404.673C89.5558 409.193 92.2892 413.3 95.735 416.76C99.1809 420.22 103.272 422.964 107.774 424.837C112.276 426.709 117.102 427.673 121.975 427.673H257.812C267.653 427.673 277.092 423.747 284.051 416.76C291.01 409.773 294.92 400.296 294.92 390.415V147.452H297.26L297.261 101.63Z" fill="#E6E6E6"/>
<path d="M259.309 9.6897H241.579C242.395 11.697 242.706 13.8749 242.486 16.0314C242.265 18.1879 241.52 20.2569 240.316 22.0561C239.111 23.8553 237.484 25.3295 235.579 26.3488C233.673 27.3681 231.547 27.9012 229.388 27.9011H151.569C149.41 27.901 147.284 27.3678 145.378 26.3484C143.473 25.3291 141.846 23.8548 140.642 22.0557C139.438 20.2565 138.692 18.1875 138.472 16.0311C138.252 13.8747 138.563 11.6969 139.378 9.6897H122.818C115.468 9.6897 108.419 12.6212 103.222 17.8392C98.0252 23.0572 95.1055 30.1344 95.1055 37.5138V390.157C95.1055 397.537 98.0252 404.614 103.222 409.832C108.419 415.05 115.468 417.982 122.818 417.982H259.309C266.659 417.982 273.708 415.05 278.905 409.832C284.102 404.614 287.021 397.537 287.021 390.157V37.5132C287.021 30.1339 284.101 23.0569 278.904 17.839C273.707 12.6211 266.659 9.6897 259.309 9.6897Z" fill="white"/>
<path d="M173.671 150.165C173.67 147.7 174.316 145.278 175.544 143.144C176.772 141.009 178.538 139.237 180.665 138.006C178.54 136.773 176.128 136.124 173.673 136.124C171.218 136.124 168.807 136.772 166.681 138.004C164.555 139.237 162.789 141.009 161.562 143.144C160.334 145.278 159.688 147.699 159.688 150.164C159.688 152.629 160.334 155.05 161.562 157.185C162.789 159.319 164.555 161.092 166.681 162.324C168.807 163.556 171.218 164.205 173.673 164.204C176.128 164.204 178.54 163.555 180.665 162.322C178.539 161.091 176.772 159.319 175.545 157.185C174.317 155.051 173.67 152.63 173.671 150.165Z" fill="#CCCCCC"/>
<path d="M191.25 150.165C191.25 147.7 191.896 145.278 193.124 143.144C194.352 141.009 196.118 139.237 198.245 138.006C196.119 136.773 193.708 136.124 191.253 136.124C188.798 136.124 186.386 136.772 184.26 138.004C182.134 139.237 180.369 141.009 179.141 143.144C177.914 145.278 177.268 147.699 177.268 150.164C177.268 152.629 177.914 155.05 179.141 157.185C180.369 159.319 182.134 161.092 184.26 162.324C186.386 163.556 188.798 164.205 191.253 164.204C193.708 164.204 196.119 163.555 198.245 162.322C196.118 161.091 194.352 159.319 193.124 157.185C191.896 155.051 191.25 152.63 191.25 150.165Z" fill="#CCCCCC"/>
<path d="M208.43 164.205C216.153 164.205 222.414 157.919 222.414 150.164C222.414 142.41 216.153 136.124 208.43 136.124C200.707 136.124 194.447 142.41 194.447 150.164C194.447 157.919 200.707 164.205 208.43 164.205Z" fill="#6C63FF"/>
<path d="M231.8 194.017H150.301C149.525 194.016 148.781 193.706 148.232 193.156C147.684 192.605 147.375 191.858 147.374 191.079V109.25C147.375 108.471 147.684 107.724 148.232 107.173C148.781 106.622 149.525 106.312 150.301 106.312H231.8C232.576 106.312 233.32 106.622 233.869 107.173C234.417 107.724 234.726 108.471 234.727 109.25V191.079C234.726 191.858 234.417 192.605 233.869 193.156C233.32 193.706 232.576 194.016 231.8 194.017ZM150.301 107.488C149.835 107.488 149.389 107.674 149.06 108.004C148.73 108.335 148.545 108.783 148.545 109.251V191.079C148.545 191.547 148.73 191.995 149.06 192.325C149.389 192.656 149.835 192.842 150.301 192.842H231.8C232.266 192.842 232.712 192.656 233.041 192.325C233.371 191.995 233.556 191.547 233.556 191.079V109.251C233.556 108.783 233.371 108.335 233.041 108.004C232.712 107.674 232.266 107.488 231.8 107.488H150.301Z" fill="#CCCCCC"/>
<path d="M249.998 256.743H125.002V257.918H249.998V256.743Z" fill="#CCCCCC"/>
<path d="M128.949 249.404C131.13 249.404 132.897 247.63 132.897 245.441C132.897 243.252 131.13 241.477 128.949 241.477C126.769 241.477 125.002 243.252 125.002 245.441C125.002 247.63 126.769 249.404 128.949 249.404Z" fill="#6C63FF"/>
<path d="M249.998 296.375H125.002V297.55H249.998V296.375Z" fill="#CCCCCC"/>
<path d="M128.949 289.036C131.13 289.036 132.897 287.262 132.897 285.073C132.897 282.884 131.13 281.11 128.949 281.11C126.769 281.11 125.002 282.884 125.002 285.073C125.002 287.262 126.769 289.036 128.949 289.036Z" fill="#6C63FF"/>
<path d="M247.711 341.505H208.208C207.526 341.505 206.872 341.232 206.389 340.748C205.907 340.263 205.636 339.606 205.635 338.921V325.02C205.636 324.335 205.907 323.678 206.389 323.194C206.872 322.709 207.526 322.437 208.208 322.436H247.711C248.393 322.437 249.047 322.709 249.53 323.194C250.012 323.678 250.284 324.335 250.284 325.02V338.921C250.284 339.606 250.012 340.263 249.53 340.748C249.047 341.232 248.393 341.505 247.711 341.505Z" fill="#6C63FF"/>
<path d="M141.826 249.404C144.006 249.404 145.773 247.63 145.773 245.441C145.773 243.252 144.006 241.477 141.826 241.477C139.646 241.477 137.878 243.252 137.878 245.441C137.878 247.63 139.646 249.404 141.826 249.404Z" fill="#6C63FF"/>
<path d="M154.702 249.404C156.882 249.404 158.65 247.63 158.65 245.441C158.65 243.252 156.882 241.477 154.702 241.477C152.522 241.477 150.755 243.252 150.755 245.441C150.755 247.63 152.522 249.404 154.702 249.404Z" fill="#6C63FF"/>
<path d="M141.826 289.036C144.006 289.036 145.773 287.262 145.773 285.073C145.773 282.884 144.006 281.11 141.826 281.11C139.646 281.11 137.878 282.884 137.878 285.073C137.878 287.262 139.646 289.036 141.826 289.036Z" fill="#6C63FF"/>
<path d="M154.702 289.036C156.882 289.036 158.65 287.262 158.65 285.073C158.65 282.884 156.882 281.11 154.702 281.11C152.522 281.11 150.755 282.884 150.755 285.073C150.755 287.262 152.522 289.036 154.702 289.036Z" fill="#6C63FF"/>
<path d="M424.409 429H13.7723C12.8932 429 12.1812 428.686 12.1812 428.301C12.1812 427.915 12.8932 427.601 13.7723 427.601H424.409C425.288 427.601 426 427.914 426 428.301C426 428.687 425.288 429 424.409 429Z" fill="#3F3D56"/>
<path d="M322.955 281.067C323.235 281.196 323.505 281.347 323.762 281.519L349.414 270.527L350.329 263.742L360.579 263.679L359.974 279.24L326.116 288.23C326.044 288.466 325.959 288.698 325.86 288.924C325.37 289.973 324.583 290.853 323.597 291.454C322.611 292.055 321.47 292.35 320.317 292.302C319.165 292.254 318.052 291.865 317.119 291.184C316.186 290.504 315.474 289.561 315.072 288.475C314.671 287.39 314.598 286.209 314.862 285.082C315.127 283.954 315.717 282.931 316.559 282.139C317.402 281.348 318.458 280.824 319.596 280.633C320.734 280.442 321.902 280.593 322.955 281.067Z" fill="#FFB8B8"/>
<path d="M364.307 422.077H357.295L353.96 394.922L364.308 394.923L364.307 422.077Z" fill="#FFB8B8"/>
<path d="M352.287 420.065H365.809V428.614H343.772C343.772 426.347 344.669 424.172 346.266 422.569C347.863 420.966 350.029 420.065 352.287 420.065Z" fill="#2F2E41"/>
<path d="M391.577 420.088L384.598 420.778L378.627 394.083L388.926 393.064L391.577 420.088Z" fill="#FFB8B8"/>
<path d="M379.419 419.269L392.876 417.938L393.711 426.446L371.78 428.614C371.67 427.497 371.781 426.369 372.105 425.295C372.43 424.221 372.962 423.221 373.672 422.353C374.381 421.485 375.253 420.766 376.24 420.237C377.226 419.708 378.306 419.379 379.419 419.269Z" fill="#2F2E41"/>
<path d="M366.259 234.941C374.017 234.941 380.306 228.626 380.306 220.837C380.306 213.047 374.017 206.733 366.259 206.733C358.501 206.733 352.212 213.047 352.212 220.837C352.212 228.626 358.501 234.941 366.259 234.941Z" fill="#FFB8B8"/>
<path d="M355.729 416.586C355.126 416.587 354.542 416.375 354.08 415.986C353.618 415.598 353.308 415.058 353.203 414.462C349.574 394.235 337.711 328.094 337.427 326.262C337.421 326.22 337.418 326.177 337.418 326.135V321.203C337.418 321.023 337.474 320.848 337.578 320.702L339.145 318.498C339.22 318.392 339.318 318.305 339.431 318.243C339.544 318.181 339.67 318.145 339.799 318.14C348.734 317.719 377.995 316.486 379.409 318.26C380.829 320.042 380.327 325.441 380.212 326.506L380.218 326.617L393.364 411.027C393.466 411.7 393.301 412.387 392.904 412.939C392.506 413.491 391.908 413.863 391.239 413.976L383.028 415.334C382.417 415.433 381.79 415.307 381.263 414.982C380.735 414.656 380.342 414.15 380.154 413.558C377.614 405.41 369.099 378.002 366.148 367.397C366.129 367.33 366.087 367.271 366.029 367.233C365.971 367.195 365.901 367.179 365.833 367.189C365.764 367.199 365.701 367.233 365.656 367.286C365.611 367.339 365.586 367.407 365.587 367.476C365.735 377.586 366.091 403.38 366.214 412.288L366.227 413.248C366.233 413.897 365.995 414.525 365.562 415.008C365.128 415.49 364.531 415.791 363.886 415.853L355.969 416.575C355.888 416.582 355.808 416.586 355.729 416.586Z" fill="#2F2E41"/>
<path d="M357.344 240.486C354.892 241.95 353.426 244.638 352.584 247.374C351.025 252.44 350.087 257.677 349.79 262.97L348.901 278.82L337.888 320.837C347.433 328.945 352.939 327.102 365.787 320.47C378.636 313.837 380.104 322.681 380.104 322.681L382.673 286.93L386.344 247.863C385.52 246.867 384.587 245.967 383.564 245.179C380.171 242.53 376.223 240.689 372.018 239.794C367.813 238.899 363.461 238.974 359.29 240.014L357.344 240.486Z" fill="#6C63FF"/>
<path d="M353.767 289.553C354.063 289.665 354.35 289.8 354.625 289.957L379.989 277.211L380.41 270.305L390.873 269.581L391.434 285.323L357.538 296.577C357.261 297.769 356.63 298.848 355.727 299.671C354.825 300.494 353.694 301.021 352.486 301.183C351.278 301.345 350.049 301.133 348.963 300.577C347.877 300.021 346.986 299.146 346.408 298.068C345.829 296.991 345.591 295.763 345.725 294.546C345.859 293.33 346.359 292.183 347.158 291.259C347.957 290.334 349.017 289.676 350.198 289.371C351.378 289.067 352.623 289.13 353.767 289.553Z" fill="#FFB8B8"/>
<path d="M386.161 248.042C392.401 250.254 393.5 274.212 393.5 274.212C386.159 270.158 377.348 276.792 377.348 276.792C377.348 276.792 375.513 270.527 373.31 262.418C372.645 260.137 372.566 257.725 373.079 255.405C373.593 253.085 374.682 250.933 376.247 249.149C376.247 249.149 379.92 245.829 386.161 248.042Z" fill="#6C63FF"/>
<path d="M378.854 224.567C377.104 223.161 374.716 225.716 374.716 225.716L373.316 213.064C373.316 213.064 364.565 214.116 358.964 212.712C353.364 211.309 352.489 217.809 352.489 217.809C352.2 215.183 352.141 212.537 352.314 209.901C352.664 206.738 357.214 203.575 365.265 201.466C373.316 199.357 377.516 208.495 377.516 208.495C383.118 211.307 380.605 225.973 378.854 224.567Z" fill="#2F2E41"/>
</g>
<defs>
<clipPath id="clip0_21_219">
<rect width="426" height="429" fill="white"/>
</clipPath>
</defs>
</svg>
