<svg width="424" height="495" viewBox="0 0 424 495" fill="none" xmlns="http://www.w3.org/2000/svg">
<g clip-path="url(#clip0_21_436)">
<path d="M410.296 182.444H13.3409C9.8039 182.44 6.41296 181.032 3.91195 178.528C1.41094 176.025 0.00408405 172.631 0 169.091V13.3531C0.00408405 9.81286 1.41094 6.41882 3.91195 3.91551C6.41296 1.4122 9.8039 0.00405729 13.3409 -3.05176e-05H410.296C413.833 0.00405729 417.224 1.4122 419.725 3.91551C422.226 6.41882 423.633 9.81286 423.637 13.3531V169.091C423.633 172.631 422.226 176.025 419.725 178.528C417.224 181.032 413.833 182.44 410.296 182.444Z" fill="#F2F2F2"/>
<path d="M317.717 173.927H76.3514C58.3652 173.907 41.1214 166.747 28.4032 154.017C15.685 141.287 8.53104 124.027 8.51074 106.024V76.4268C8.53102 58.4239 15.685 41.1643 28.4032 28.4343C41.1214 15.7044 58.3651 8.54371 76.3514 8.52328H347.288C365.274 8.54371 382.518 15.7044 395.236 28.4343C407.954 41.1643 415.108 58.4239 415.128 76.4268C415.099 102.277 404.827 127.059 386.565 145.338C368.303 163.616 343.543 173.898 317.717 173.927Z" fill="white"/>
<path d="M255.455 53.1058H95.9089C94.9964 53.1058 94.1212 52.743 93.476 52.0972C92.8307 51.4513 92.4683 50.5754 92.4683 49.6621C92.4683 48.7487 92.8307 47.8728 93.476 47.227C94.1212 46.5811 94.9964 46.2183 95.9089 46.2183H255.455C256.367 46.2183 257.242 46.5811 257.887 47.227C258.533 47.8728 258.895 48.7487 258.895 49.6621C258.895 50.5754 258.533 51.4513 257.887 52.0972C257.242 52.743 256.367 53.1058 255.455 53.1058Z" fill="#E6E6E6"/>
<path d="M336.219 89.8486H95.9089C94.9964 89.8486 94.1212 89.4857 93.476 88.8399C92.8307 88.1941 92.4683 87.3181 92.4683 86.4048C92.4683 85.4914 92.8307 84.6155 93.476 83.9697C94.1212 83.3238 94.9964 82.961 95.9089 82.961H336.219C337.132 82.961 338.007 83.3238 338.652 83.9697C339.298 84.6155 339.66 85.4914 339.66 86.4048C339.66 87.3181 339.298 88.1941 338.652 88.8399C338.007 89.4857 337.132 89.8486 336.219 89.8486Z" fill="#E6E6E6"/>
<path d="M336.219 126.591H95.9089C94.9964 126.591 94.1212 126.228 93.476 125.583C92.8307 124.937 92.4683 124.061 92.4683 123.148C92.4683 122.234 92.8307 121.358 93.476 120.712C94.1212 120.067 94.9964 119.704 95.9089 119.704H336.219C337.132 119.704 338.007 120.067 338.652 120.712C339.298 121.358 339.66 122.234 339.66 123.148C339.66 124.061 339.298 124.937 338.652 125.583C338.007 126.228 337.132 126.591 336.219 126.591Z" fill="#E6E6E6"/>
<path d="M336.219 126.591H95.9089C94.9964 126.591 94.1212 126.228 93.476 125.583C92.8307 124.937 92.4683 124.061 92.4683 123.148C92.4683 122.234 92.8307 121.358 93.476 120.712C94.1212 120.067 94.9964 119.704 95.9089 119.704H336.219C337.132 119.704 338.007 120.067 338.652 120.712C339.298 121.358 339.66 122.234 339.66 123.148C339.66 124.061 339.298 124.937 338.652 125.583C338.007 126.228 337.132 126.591 336.219 126.591Z" fill="#E6E6E6"/>
<path d="M238.618 94.0657C238.657 95.103 238.922 96.1193 239.395 97.0431C239.868 97.9668 240.538 98.7754 241.357 99.4121C242.176 100.049 243.125 100.498 244.136 100.728C245.147 100.958 246.196 100.963 247.21 100.743L260.331 122.288L265.916 110.427L252.599 91.786C252.118 90.1062 251.037 88.6618 249.562 87.7263C248.087 86.7908 246.321 86.4293 244.597 86.7103C242.874 86.9913 241.314 87.8953 240.212 89.2509C239.11 90.6066 238.543 92.3197 238.618 94.0657Z" fill="#FFB6B6"/>
<path d="M337.084 155.813L291.866 131.263L277.603 117.869C277.603 117.869 271.403 116.208 273.685 114.19C275.967 112.172 269.464 110.226 269.464 110.226L261.807 103.036L250.927 110.741L254.076 115.626C254.076 115.626 253.859 123.714 258.286 122.158C262.712 120.602 261.606 127.31 261.606 127.31L288.027 168.303L337.084 155.813Z" fill="#3F3D56"/>
<path d="M203.606 132.683C227.998 132.683 247.773 112.891 247.773 88.4753C247.773 64.0601 227.998 44.2676 203.606 44.2676C179.213 44.2676 159.438 64.0601 159.438 88.4753C159.438 112.891 179.213 132.683 203.606 132.683Z" fill="#6C63FF"/>
<path d="M337.224 477.812H328.04L323.67 442.358H337.224V477.812Z" fill="#FFB6B6"/>
<path d="M342.071 493.739H335.486L334.31 487.515L331.299 493.739H313.832C312.995 493.739 312.179 493.471 311.505 492.974C310.831 492.478 310.332 491.778 310.083 490.978C309.834 490.178 309.847 489.319 310.12 488.527C310.393 487.735 310.912 487.051 311.601 486.574L325.55 476.932V470.64L340.221 471.517L342.071 493.739Z" fill="#2F2E41"/>
<path d="M263.775 477.812H254.591L250.221 442.358H263.775V477.812Z" fill="#FFB6B6"/>
<path d="M268.622 493.739H262.036L260.86 487.515L257.85 493.739H240.382C239.545 493.739 238.73 493.471 238.055 492.974C237.381 492.478 236.883 491.778 236.633 490.978C236.384 490.178 236.397 489.319 236.67 488.527C236.943 487.735 237.462 487.051 238.151 486.574L252.1 476.932V470.64L266.772 471.517L268.622 493.739Z" fill="#2F2E41"/>
<path d="M327.48 209.672H281.128V262.491H327.48V209.672Z" fill="#FFB6B6"/>
<path d="M282.197 235.725L274.353 245.003L260.804 273.554L226.664 354.858L219.444 372.052L225.275 402.449C225.275 402.449 226.219 423.864 226.219 427.369C226.219 434.506 232.183 438.461 232.183 438.461L236.559 461.272L278.988 459.488C278.988 459.488 277.508 434.344 268.621 428.001C259.735 421.659 255.65 388.604 255.65 388.604L250.821 373.938L297.886 318.096L298.19 337.616L298.337 347.064C298.337 347.064 291.444 408.514 299.478 420.439C307.513 432.365 299.642 430.962 299.642 430.962L300.025 455.562L350.299 455.919L339.208 385.094C339.208 385.094 333.576 380.644 336.589 376.17C339.602 371.696 333.669 366.216 333.669 366.216L336.33 310.925C336.33 310.925 333.383 301.375 336.849 300.134C340.315 298.892 337.304 290.679 337.304 290.679L337.82 279.978L327.48 246.788L282.197 235.725Z" fill="#2F2E41"/>
<path d="M328.193 209.672L333.185 194.683L336.75 189.687L338.176 175.412C338.176 136.869 329.587 143.287 329.587 143.287L324.627 129.731L301.808 129.018L287.189 142.936L275.067 147.218L270.319 171.908L278.989 198.252L281.128 212.527C277.047 220.068 277.392 216.501 280.771 222.163L321.062 233.226C335.324 238.223 335.324 225.375 332.464 222.163C329.604 218.951 328.193 209.672 328.193 209.672Z" fill="#3F3D56"/>
<path d="M310.27 124.226C321.953 124.226 331.424 114.746 331.424 103.053C331.424 91.3586 321.953 81.8788 310.27 81.8788C298.587 81.8788 289.116 91.3586 289.116 103.053C289.116 114.746 298.587 124.226 310.27 124.226Z" fill="#FFB6B6"/>
<path d="M338.511 131.316C338.711 131.653 338.831 132.03 338.865 132.42C338.898 132.809 338.843 133.202 338.704 133.568C338.565 133.933 338.345 134.263 338.061 134.532C337.777 134.8 337.436 135.002 337.064 135.12C334.226 136.062 332.478 138.81 330.439 141.009C328.407 143.2 325.133 145.02 322.538 143.528C319.949 142.044 319.771 138.254 317.603 136.198C315.492 134.2 311.984 134.442 309.502 135.962L309.428 136.008C309 136.288 308.499 136.435 307.987 136.433C307.476 136.431 306.977 136.278 306.551 135.995C306.125 135.712 305.792 135.31 305.592 134.838C305.392 134.367 305.334 133.848 305.426 133.344C306.296 128.716 307.165 124.088 308.033 119.46C305.751 124.964 302.437 129.979 298.271 134.235C297.123 135.561 295.669 136.585 294.035 137.219C292.552 137.69 291.111 136.155 289.671 136.434C293.251 133.3 305.288 113.215 303.134 99.7891C300.603 100.075 298.071 100.36 295.54 100.646C295.266 99.4465 294.68 98.341 293.842 97.4409C293.945 98.608 293.796 99.7834 293.407 100.888C292.352 101.01 291.29 101.124 290.234 101.245C288.765 101.409 287.168 101.552 285.906 100.781C283.802 99.4965 283.738 96.4559 284.337 94.0576C286.091 87.0842 291.411 81.2528 297.921 78.198C304.432 75.1502 306.357 81.938 313.217 79.7683C326.766 75.4857 337.149 82.8089 340.807 96.3988C343.881 107.798 341.649 119.896 338.511 131.316Z" fill="#2F2E41"/>
<path d="M397.076 494.199H371.173L371.062 493.997C370.731 493.396 370.411 492.759 370.112 492.104C367.444 486.387 366.316 479.848 365.321 474.078L364.572 469.729C364.481 469.203 364.549 468.661 364.768 468.173C364.987 467.686 365.346 467.275 365.799 466.993C366.253 466.71 366.78 466.57 367.314 466.59C367.847 466.61 368.363 466.788 368.795 467.103C372.731 469.97 376.669 472.834 380.609 475.696C382.101 476.782 383.804 478.039 385.436 479.398C385.593 478.633 385.758 477.865 385.922 477.109C386.036 476.586 386.303 476.109 386.689 475.739C387.074 475.369 387.562 475.123 388.088 475.032C388.615 474.941 389.156 475.009 389.644 475.228C390.131 475.447 390.543 475.806 390.825 476.26L393.855 481.134C396.066 484.693 398.017 488.2 397.619 491.983C397.621 492.029 397.618 492.075 397.609 492.12C397.53 492.741 397.382 493.352 397.169 493.941L397.076 494.199Z" fill="#F0F0F0"/>
<path d="M423.076 494.76L176.929 495C176.683 494.999 176.448 494.9 176.275 494.726C176.102 494.552 176.004 494.316 176.004 494.07C176.004 493.824 176.102 493.588 176.275 493.414C176.448 493.239 176.683 493.141 176.929 493.14L423.076 492.9C423.321 492.901 423.557 492.999 423.73 493.174C423.903 493.348 424 493.584 424 493.83C424 494.076 423.903 494.312 423.73 494.486C423.557 494.66 423.321 494.759 423.076 494.76Z" fill="#CACACA"/>
<path d="M199.591 147.976L172.515 125.09C171.59 124.306 171.013 123.187 170.911 121.977C170.809 120.768 171.191 119.568 171.972 118.64L176.955 112.733C177.739 111.807 178.857 111.229 180.065 111.128C181.273 111.026 182.473 111.407 183.4 112.189L210.475 135.075C211.4 135.859 211.977 136.979 212.079 138.188C212.181 139.397 211.8 140.598 211.018 141.526L206.035 147.432C205.252 148.358 204.133 148.936 202.925 149.038C201.717 149.14 200.518 148.758 199.591 147.976Z" fill="#3F3D56"/>
<path d="M173.936 119.116C173.515 119.616 173.31 120.263 173.365 120.914C173.42 121.566 173.73 122.169 174.229 122.592L201.304 145.478C201.804 145.899 202.45 146.105 203.101 146.05C203.752 145.995 204.355 145.684 204.777 145.184L209.76 139.278C210.181 138.778 210.387 138.131 210.332 137.48C210.277 136.828 209.966 136.225 209.468 135.802L182.392 112.916C181.893 112.495 181.247 112.289 180.596 112.344C179.944 112.399 179.342 112.71 178.92 113.209L173.936 119.116Z" fill="white"/>
<path d="M189.831 128.012C189.737 128.144 189.614 128.252 189.471 128.328C189.328 128.403 189.169 128.444 189.008 128.448L184.754 128.546C184.617 128.549 184.481 128.525 184.354 128.476C184.226 128.426 184.11 128.352 184.011 128.258C183.912 128.163 183.833 128.05 183.778 127.925C183.722 127.8 183.692 127.665 183.689 127.528C183.686 127.391 183.71 127.255 183.759 127.128C183.809 127 183.883 126.884 183.977 126.785C184.072 126.686 184.185 126.606 184.31 126.551C184.435 126.496 184.569 126.466 184.706 126.463L187.489 126.399L184.748 119.16C184.651 118.902 184.661 118.616 184.774 118.364C184.887 118.113 185.096 117.917 185.354 117.819C185.611 117.721 185.898 117.73 186.149 117.842C186.4 117.955 186.597 118.164 186.695 118.421L189.958 127.037C190.016 127.193 190.037 127.361 190.018 127.526C189.999 127.692 189.94 127.85 189.848 127.989L189.831 128.012Z" fill="#6C63FF"/>
<path d="M190.377 129.832C191.403 129.982 192.383 130.357 193.249 130.928C194.115 131.499 194.845 132.253 195.389 133.137C195.932 134.022 196.275 135.014 196.393 136.046C196.512 137.077 196.403 138.122 196.074 139.106L216.045 154.504L203.658 158.771L186.592 143.494C184.976 142.832 183.659 141.6 182.891 140.031C182.122 138.462 181.955 136.665 182.421 134.981C182.888 133.297 183.955 131.842 185.421 130.893C186.888 129.944 188.651 129.566 190.377 129.832Z" fill="#FFB6B6"/>
<path d="M294.35 137.445L243.218 168.912C243.218 168.912 222.602 161.277 226.631 157.743C230.66 154.208 217.834 151.819 217.834 151.819L203.665 142.277L195.443 151.842C195.443 151.842 196.941 167.377 199.49 164.687C202.039 161.997 205.849 169.345 205.849 169.345C205.849 169.345 206.975 177.55 214.232 175.485C221.488 173.421 240.959 195.064 240.959 195.064L303.887 171.572L294.35 137.445Z" fill="#3F3D56"/>
<path d="M202.052 106.209C201.46 106.209 200.875 106.071 200.345 105.805C199.815 105.54 199.353 105.155 198.998 104.68L189.633 92.1818C189.332 91.7803 189.113 91.3234 188.989 90.8372C188.865 90.351 188.837 89.8451 188.908 89.3482C188.979 88.8514 189.147 88.3734 189.402 87.9416C189.658 87.5097 189.996 87.1325 190.397 86.8314C191.207 86.2232 192.225 85.9621 193.228 86.1055C193.724 86.1765 194.202 86.3447 194.633 86.6004C195.065 86.8561 195.442 87.1944 195.743 87.5959L201.869 95.7717L217.605 72.1468C218.167 71.3034 219.04 70.7179 220.033 70.5191C221.026 70.3203 222.058 70.5245 222.9 71.0868C223.743 71.649 224.328 72.5233 224.526 73.5173C224.725 74.5112 224.521 75.5434 223.959 76.3868L205.23 104.507C204.891 105.015 204.435 105.435 203.901 105.731C203.367 106.027 202.769 106.191 202.159 106.208C202.123 106.208 202.088 106.209 202.052 106.209Z" fill="white"/>
</g>
<defs>
<clipPath id="clip0_21_436">
<rect width="424" height="495" fill="white"/>
</clipPath>
</defs>
</svg>
